<mxfile host="Electron" modified="2023-09-09T00:14:22.450Z" agent="Mozilla/5.0 (Windows NT 10.0; Win64; x64) AppleWebKit/537.36 (KHTML, like Gecko) draw.io/21.6.5 Chrome/114.0.5735.243 Electron/25.3.1 Safari/537.36" etag="2nXkanf00EMZXEsMMx2F" version="21.6.5" type="device">
  <diagram name="PÃ¡gina-1" id="gfIB3W-1qIigMekoOi62">
    <mxGraphModel dx="1430" dy="589" grid="1" gridSize="10" guides="1" tooltips="1" connect="1" arrows="1" fold="1" page="1" pageScale="1" pageWidth="827" pageHeight="1169" math="0" shadow="0">
      <root>
        <mxCell id="0" />
        <mxCell id="1" parent="0" />
        <mxCell id="FhFf2jStMPPnh_g0BgHT-32" value="Pedido" style="swimlane;fontStyle=1;align=center;verticalAlign=top;childLayout=stackLayout;horizontal=1;startSize=26;horizontalStack=0;resizeParent=1;resizeParentMax=0;resizeLast=0;collapsible=1;marginBottom=0;whiteSpace=wrap;html=1;" vertex="1" parent="1">
          <mxGeometry x="40" y="40" width="280" height="216" as="geometry" />
        </mxCell>
        <mxCell id="FhFf2jStMPPnh_g0BgHT-33" value="-&amp;nbsp;cliente: String" style="text;strokeColor=none;fillColor=none;align=left;verticalAlign=top;spacingLeft=4;spacingRight=4;overflow=hidden;rotatable=0;points=[[0,0.5],[1,0.5]];portConstraint=eastwest;whiteSpace=wrap;html=1;" vertex="1" parent="FhFf2jStMPPnh_g0BgHT-32">
          <mxGeometry y="26" width="280" height="26" as="geometry" />
        </mxCell>
        <mxCell id="FhFf2jStMPPnh_g0BgHT-42" value="-&amp;nbsp;endereco_entrega: String" style="text;strokeColor=none;fillColor=none;align=left;verticalAlign=top;spacingLeft=4;spacingRight=4;overflow=hidden;rotatable=0;points=[[0,0.5],[1,0.5]];portConstraint=eastwest;whiteSpace=wrap;html=1;" vertex="1" parent="FhFf2jStMPPnh_g0BgHT-32">
          <mxGeometry y="52" width="280" height="26" as="geometry" />
        </mxCell>
        <mxCell id="FhFf2jStMPPnh_g0BgHT-41" value="-&amp;nbsp;valor_total: double" style="text;strokeColor=none;fillColor=none;align=left;verticalAlign=top;spacingLeft=4;spacingRight=4;overflow=hidden;rotatable=0;points=[[0,0.5],[1,0.5]];portConstraint=eastwest;whiteSpace=wrap;html=1;" vertex="1" parent="FhFf2jStMPPnh_g0BgHT-32">
          <mxGeometry y="78" width="280" height="26" as="geometry" />
        </mxCell>
        <mxCell id="FhFf2jStMPPnh_g0BgHT-40" value="-&amp;nbsp;status: String" style="text;strokeColor=none;fillColor=none;align=left;verticalAlign=top;spacingLeft=4;spacingRight=4;overflow=hidden;rotatable=0;points=[[0,0.5],[1,0.5]];portConstraint=eastwest;whiteSpace=wrap;html=1;" vertex="1" parent="FhFf2jStMPPnh_g0BgHT-32">
          <mxGeometry y="104" width="280" height="26" as="geometry" />
        </mxCell>
        <mxCell id="FhFf2jStMPPnh_g0BgHT-34" value="" style="line;strokeWidth=1;fillColor=none;align=left;verticalAlign=middle;spacingTop=-1;spacingLeft=3;spacingRight=3;rotatable=0;labelPosition=right;points=[];portConstraint=eastwest;strokeColor=inherit;" vertex="1" parent="FhFf2jStMPPnh_g0BgHT-32">
          <mxGeometry y="130" width="280" height="8" as="geometry" />
        </mxCell>
        <mxCell id="FhFf2jStMPPnh_g0BgHT-35" value="+&amp;nbsp;Pedido(&lt;span style=&quot;background-color: initial;&quot;&gt;String,&amp;nbsp;&lt;/span&gt;&lt;span style=&quot;background-color: initial;&quot;&gt;String,&amp;nbsp;&lt;/span&gt;&lt;span style=&quot;background-color: initial;&quot;&gt;double&lt;/span&gt;&lt;span style=&quot;background-color: initial;&quot;&gt;): void&lt;/span&gt;" style="text;strokeColor=none;fillColor=none;align=left;verticalAlign=top;spacingLeft=4;spacingRight=4;overflow=hidden;rotatable=0;points=[[0,0.5],[1,0.5]];portConstraint=eastwest;whiteSpace=wrap;html=1;" vertex="1" parent="FhFf2jStMPPnh_g0BgHT-32">
          <mxGeometry y="138" width="280" height="26" as="geometry" />
        </mxCell>
        <mxCell id="FhFf2jStMPPnh_g0BgHT-39" value="+&amp;nbsp;get_endereco_entrega(): String" style="text;strokeColor=none;fillColor=none;align=left;verticalAlign=top;spacingLeft=4;spacingRight=4;overflow=hidden;rotatable=0;points=[[0,0.5],[1,0.5]];portConstraint=eastwest;whiteSpace=wrap;html=1;" vertex="1" parent="FhFf2jStMPPnh_g0BgHT-32">
          <mxGeometry y="164" width="280" height="26" as="geometry" />
        </mxCell>
        <mxCell id="FhFf2jStMPPnh_g0BgHT-38" value="+&amp;nbsp;get_valor_total(): double" style="text;strokeColor=none;fillColor=none;align=left;verticalAlign=top;spacingLeft=4;spacingRight=4;overflow=hidden;rotatable=0;points=[[0,0.5],[1,0.5]];portConstraint=eastwest;whiteSpace=wrap;html=1;" vertex="1" parent="FhFf2jStMPPnh_g0BgHT-32">
          <mxGeometry y="190" width="280" height="26" as="geometry" />
        </mxCell>
        <mxCell id="FhFf2jStMPPnh_g0BgHT-43" value="CalculadoraTaxaEntrega" style="swimlane;fontStyle=1;align=center;verticalAlign=top;childLayout=stackLayout;horizontal=1;startSize=26;horizontalStack=0;resizeParent=1;resizeParentMax=0;resizeLast=0;collapsible=1;marginBottom=0;whiteSpace=wrap;html=1;" vertex="1" parent="1">
          <mxGeometry x="510" y="40" width="280" height="60" as="geometry" />
        </mxCell>
        <mxCell id="FhFf2jStMPPnh_g0BgHT-48" value="" style="line;strokeWidth=1;fillColor=none;align=left;verticalAlign=middle;spacingTop=-1;spacingLeft=3;spacingRight=3;rotatable=0;labelPosition=right;points=[];portConstraint=eastwest;strokeColor=inherit;" vertex="1" parent="FhFf2jStMPPnh_g0BgHT-43">
          <mxGeometry y="26" width="280" height="8" as="geometry" />
        </mxCell>
        <mxCell id="FhFf2jStMPPnh_g0BgHT-50" value="+&amp;nbsp;calcular_taxa(String): double" style="text;strokeColor=none;fillColor=none;align=left;verticalAlign=top;spacingLeft=4;spacingRight=4;overflow=hidden;rotatable=0;points=[[0,0.5],[1,0.5]];portConstraint=eastwest;whiteSpace=wrap;html=1;" vertex="1" parent="FhFf2jStMPPnh_g0BgHT-43">
          <mxGeometry y="34" width="280" height="26" as="geometry" />
        </mxCell>
        <mxCell id="FhFf2jStMPPnh_g0BgHT-52" value="GestorDeDescontos" style="swimlane;fontStyle=1;align=center;verticalAlign=top;childLayout=stackLayout;horizontal=1;startSize=26;horizontalStack=0;resizeParent=1;resizeParentMax=0;resizeLast=0;collapsible=1;marginBottom=0;whiteSpace=wrap;html=1;" vertex="1" parent="1">
          <mxGeometry x="510" y="160" width="280" height="112" as="geometry" />
        </mxCell>
        <mxCell id="FhFf2jStMPPnh_g0BgHT-53" value="-&amp;nbsp;codigos_desconto:&amp;nbsp;Map&amp;lt;String, Double&amp;gt;" style="text;strokeColor=none;fillColor=none;align=left;verticalAlign=top;spacingLeft=4;spacingRight=4;overflow=hidden;rotatable=0;points=[[0,0.5],[1,0.5]];portConstraint=eastwest;whiteSpace=wrap;html=1;" vertex="1" parent="FhFf2jStMPPnh_g0BgHT-52">
          <mxGeometry y="26" width="280" height="26" as="geometry" />
        </mxCell>
        <mxCell id="FhFf2jStMPPnh_g0BgHT-57" value="" style="line;strokeWidth=1;fillColor=none;align=left;verticalAlign=middle;spacingTop=-1;spacingLeft=3;spacingRight=3;rotatable=0;labelPosition=right;points=[];portConstraint=eastwest;strokeColor=inherit;" vertex="1" parent="FhFf2jStMPPnh_g0BgHT-52">
          <mxGeometry y="52" width="280" height="8" as="geometry" />
        </mxCell>
        <mxCell id="FhFf2jStMPPnh_g0BgHT-58" value="+&amp;nbsp;GestorDeDescontos(&lt;span style=&quot;background-color: initial;&quot;&gt;): void&lt;/span&gt;" style="text;strokeColor=none;fillColor=none;align=left;verticalAlign=top;spacingLeft=4;spacingRight=4;overflow=hidden;rotatable=0;points=[[0,0.5],[1,0.5]];portConstraint=eastwest;whiteSpace=wrap;html=1;" vertex="1" parent="FhFf2jStMPPnh_g0BgHT-52">
          <mxGeometry y="60" width="280" height="26" as="geometry" />
        </mxCell>
        <mxCell id="FhFf2jStMPPnh_g0BgHT-59" value="+&amp;nbsp;aplicar_desconto&lt;span style=&quot;background-color: initial;&quot;&gt;(Pedido, String): double&lt;/span&gt;" style="text;strokeColor=none;fillColor=none;align=left;verticalAlign=top;spacingLeft=4;spacingRight=4;overflow=hidden;rotatable=0;points=[[0,0.5],[1,0.5]];portConstraint=eastwest;whiteSpace=wrap;html=1;" vertex="1" parent="FhFf2jStMPPnh_g0BgHT-52">
          <mxGeometry y="86" width="280" height="26" as="geometry" />
        </mxCell>
        <mxCell id="FhFf2jStMPPnh_g0BgHT-67" style="edgeStyle=orthogonalEdgeStyle;rounded=0;orthogonalLoop=1;jettySize=auto;html=1;endArrow=open;endFill=0;" edge="1" parent="1" source="FhFf2jStMPPnh_g0BgHT-61" target="FhFf2jStMPPnh_g0BgHT-32">
          <mxGeometry relative="1" as="geometry">
            <Array as="points">
              <mxPoint x="180" y="430" />
            </Array>
          </mxGeometry>
        </mxCell>
        <mxCell id="FhFf2jStMPPnh_g0BgHT-68" value="1" style="edgeLabel;html=1;align=center;verticalAlign=middle;resizable=0;points=[];" vertex="1" connectable="0" parent="FhFf2jStMPPnh_g0BgHT-67">
          <mxGeometry x="-0.211" y="1" relative="1" as="geometry">
            <mxPoint x="6" y="-28" as="offset" />
          </mxGeometry>
        </mxCell>
        <mxCell id="FhFf2jStMPPnh_g0BgHT-69" value="pedido" style="edgeLabel;html=1;align=center;verticalAlign=middle;resizable=0;points=[];rotation=-90;" vertex="1" connectable="0" parent="FhFf2jStMPPnh_g0BgHT-67">
          <mxGeometry x="0.1667" y="-2" relative="1" as="geometry">
            <mxPoint x="-10" y="-9" as="offset" />
          </mxGeometry>
        </mxCell>
        <mxCell id="FhFf2jStMPPnh_g0BgHT-61" value="RastreadorPedido" style="swimlane;fontStyle=1;align=center;verticalAlign=top;childLayout=stackLayout;horizontal=1;startSize=26;horizontalStack=0;resizeParent=1;resizeParentMax=0;resizeLast=0;collapsible=1;marginBottom=0;whiteSpace=wrap;html=1;" vertex="1" parent="1">
          <mxGeometry x="40" y="340" width="280" height="112" as="geometry" />
        </mxCell>
        <mxCell id="FhFf2jStMPPnh_g0BgHT-63" value="" style="line;strokeWidth=1;fillColor=none;align=left;verticalAlign=middle;spacingTop=-1;spacingLeft=3;spacingRight=3;rotatable=0;labelPosition=right;points=[];portConstraint=eastwest;strokeColor=inherit;" vertex="1" parent="FhFf2jStMPPnh_g0BgHT-61">
          <mxGeometry y="26" width="280" height="8" as="geometry" />
        </mxCell>
        <mxCell id="FhFf2jStMPPnh_g0BgHT-64" value="+ RastreadorPedido(Pedido&lt;span style=&quot;background-color: initial;&quot;&gt;): void&lt;/span&gt;" style="text;strokeColor=none;fillColor=none;align=left;verticalAlign=top;spacingLeft=4;spacingRight=4;overflow=hidden;rotatable=0;points=[[0,0.5],[1,0.5]];portConstraint=eastwest;whiteSpace=wrap;html=1;" vertex="1" parent="FhFf2jStMPPnh_g0BgHT-61">
          <mxGeometry y="34" width="280" height="26" as="geometry" />
        </mxCell>
        <mxCell id="FhFf2jStMPPnh_g0BgHT-65" value="+&amp;nbsp;atualizar_para_em_transito&lt;span style=&quot;background-color: initial;&quot;&gt;(): void&lt;/span&gt;" style="text;strokeColor=none;fillColor=none;align=left;verticalAlign=top;spacingLeft=4;spacingRight=4;overflow=hidden;rotatable=0;points=[[0,0.5],[1,0.5]];portConstraint=eastwest;whiteSpace=wrap;html=1;" vertex="1" parent="FhFf2jStMPPnh_g0BgHT-61">
          <mxGeometry y="60" width="280" height="26" as="geometry" />
        </mxCell>
        <mxCell id="FhFf2jStMPPnh_g0BgHT-66" value="+&amp;nbsp;atualizar_para_entregue(): void" style="text;strokeColor=none;fillColor=none;align=left;verticalAlign=top;spacingLeft=4;spacingRight=4;overflow=hidden;rotatable=0;points=[[0,0.5],[1,0.5]];portConstraint=eastwest;whiteSpace=wrap;html=1;" vertex="1" parent="FhFf2jStMPPnh_g0BgHT-61">
          <mxGeometry y="86" width="280" height="26" as="geometry" />
        </mxCell>
      </root>
    </mxGraphModel>
  </diagram>
</mxfile>
